<?xml version="1.0" encoding="UTF-8"?>
<svg version="1.1" xmlns="http://www.w3.org/2000/svg" viewBox="0 0 392 390" preserveAspectRatio="xMidYMid meet">
<path d="M0 0 C24.5216425 -0.0233607 49.04328334 -0.04099478 73.56493473 -0.05181217 C84.95076431 -0.05696838 96.33658697 -0.06399825 107.72241211 -0.07543945 C117.64632546 -0.08540688 127.5702338 -0.09185835 137.49415201 -0.09408849 C142.74872771 -0.09539209 148.00328908 -0.09845583 153.25786018 -0.10573006 C158.20470326 -0.11252272 163.15152612 -0.11461033 168.09837341 -0.11310768 C169.91278633 -0.11338255 171.72719993 -0.1153684 173.54160881 -0.11920547 C176.02211308 -0.12419342 178.5025414 -0.12297949 180.98304749 -0.12025452 C181.69804682 -0.12316736 182.41304616 -0.1260802 183.14971215 -0.12908131 C190.50891769 -0.10728664 196.32202619 0.89951216 203 4 C204.11375 4.45375 205.2275 4.9075 206.375 5.375 C215.12767923 9.29861483 222.35301121 13.95735712 229 21 C229.33 21.99 229.66 22.98 230 24 C230.99 24.33 231.98 24.66 233 25 C233.70151152 26.3153341 234.36525925 27.65117592 235 29 C235.804375 29.7734375 235.804375 29.7734375 236.625 30.5625 C238 32 238 32 238 35 C238.66 35 239.32 35 240 35 C246.46352318 49.37035736 251.38575956 65.16338271 248 81 C242.19760386 81.04934656 236.39532919 81.08569402 230.59277344 81.10986328 C228.61781691 81.11993627 226.64287534 81.13359521 224.66796875 81.15087891 C221.83329582 81.17507039 218.99881962 81.18646991 216.1640625 81.1953125 C215.27756012 81.20563507 214.39105774 81.21595764 213.47769165 81.22659302 C211.31714048 81.2269907 209.15706282 81.12272534 207 81 C206.34 80.34 205.68 79.68 205 79 C205 76.87755584 205.00543943 74.75492484 205.04296875 72.6328125 C204.8931783 63.45474311 202.74517663 55.98300171 196.36328125 49.28125 C188.17121691 41.77032359 180.5356117 41.57089194 169.80297852 41.65942383 C168.36354083 41.66027094 166.92410185 41.65979331 165.48466492 41.65809631 C161.59252691 41.65723823 157.70066824 41.67483353 153.80859494 41.69581819 C149.73536181 41.71461624 145.66212175 41.71633789 141.58885193 41.71989441 C133.88250904 41.72920571 126.17629436 41.75380704 118.47000784 41.78394288 C109.69373072 41.81751544 100.91744737 41.83398007 92.14112198 41.84902918 C74.09400873 41.88035745 56.04701469 41.93310007 38 42 C37.97660664 63.32334788 37.95898924 84.64669364 37.94818783 105.97005177 C37.94303854 115.87155906 37.93602193 125.77305838 37.92456055 135.67456055 C37.9145719 144.30790341 37.90813663 152.94124048 37.90591151 161.57458895 C37.90461149 166.1429473 37.90157068 170.71128908 37.89426994 175.27964211 C37.88744369 179.5862933 37.88539639 183.89292124 37.88689232 188.19957733 C37.88661895 189.77365178 37.88465323 191.34772706 37.88079453 192.9217968 C37.86120674 201.33008081 38.01872469 209.63903899 39 218 C57.24594086 218.04676473 75.49186612 218.08201076 93.737854 218.10362434 C102.21018479 218.11392759 110.6824783 218.12796972 119.15478516 218.15087891 C126.54107215 218.17084193 133.92733214 218.18372335 141.31364536 218.18817699 C145.22297574 218.19077944 149.13222886 218.19687647 153.04153442 218.21146011 C156.72522991 218.22509008 160.40881671 218.22921175 164.09253502 218.22621536 C166.0805691 218.2270232 168.0685915 218.23775641 170.05659485 218.24884033 C179.17944659 218.22789339 188.40187629 217.61138877 196 212 C204.91162441 202.44057578 205.38690519 192.50993439 205 180 C209.65757627 177.60794067 213.71569274 177.82015731 218.80078125 178.0234375 C219.63715622 178.04846344 220.47353119 178.07348938 221.33525085 178.09927368 C223.99476622 178.18114986 226.65350262 178.27786328 229.3125 178.375 C231.12041135 178.43327273 232.92835426 178.49057528 234.73632812 178.546875 C239.15799645 178.68668017 243.57902588 178.83978995 248 179 C252.68614101 188.37228202 247.55007206 207.26354706 244.39453125 216.765625 C240.56694277 225.64305711 234.73859656 234.09704742 228 241 C227.34 241 226.68 241 226 241 C226 241.66 226 242.32 226 243 C222.53846154 246 222.53846154 246 220 246 C220 246.66 220 247.32 220 248 C217.09264268 249.45687657 214.17263587 250.88655436 211.25 252.3125 C210.44433594 252.71662109 209.63867188 253.12074219 208.80859375 253.53710938 C196.12390522 259.67969477 184.21504916 260.44933019 170.39575195 260.44824219 C168.54340366 260.4589141 166.69106238 260.47086682 164.83872986 260.48399353 C159.84365874 260.51566885 154.84869063 260.52920042 149.85353494 260.53904247 C144.61960897 260.55220187 139.38577002 260.58133081 134.15190125 260.60845947 C125.37708301 260.65165119 116.60228152 260.68382278 107.82739258 260.70849609 C96.55046073 260.7402653 85.27368868 260.79049405 73.99685383 260.84641647 C64.30285399 260.89433143 54.60882225 260.9337125 44.91477942 260.97177219 C41.79510878 260.98439796 38.67544517 260.9982301 35.55578041 261.01222992 C30.66954708 261.03362609 25.78332395 261.04971246 20.89705849 261.06158638 C19.09946114 261.06671518 17.30186779 261.07356226 15.50428391 261.08220482 C13.06174548 261.09362968 10.61927267 261.09890324 8.17671204 261.10247803 C7.45631203 261.10723546 6.73591203 261.11199289 5.99368173 261.11689448 C1.1142067 261.1142067 1.1142067 261.1142067 0 260 C-0.09649688 258.60821676 -0.12371888 257.2115601 -0.12304783 255.81643581 C-0.12503888 254.90876192 -0.12702993 254.00108802 -0.12908131 253.06590885 C-0.12616847 252.05717513 -0.12325563 251.04844142 -0.12025452 250.00914001 C-0.12110894 248.94656198 -0.12196337 247.88398394 -0.12284368 246.78920656 C-0.12450164 243.1992167 -0.11897196 239.60927272 -0.11352539 236.01928711 C-0.11324356 233.45759584 -0.11340117 230.89590448 -0.1139679 228.33421326 C-0.11419622 222.80391281 -0.11134469 217.27362736 -0.10573006 211.74333 C-0.09761742 203.74736196 -0.09500008 195.75139962 -0.09374207 187.7554279 C-0.09155117 174.78380743 -0.08489008 161.81219324 -0.07543945 148.84057617 C-0.0662663 136.23673535 -0.05918499 123.63289622 -0.05493164 111.02905273 C-0.05466892 110.25269661 -0.05440619 109.47634048 -0.05413551 108.67645841 C-0.05283051 104.78187053 -0.05156679 100.88728264 -0.05032361 96.99269474 C-0.03994983 64.66179193 -0.02233051 32.33089683 0 0 Z M37 216 C38 218 38 218 38 218 Z " fill="currentColor" transform="translate(78,64)"/>
<path d="M0 0 C1.29997925 0.00303635 1.29997925 0.00303635 2.6262207 0.00613403 C3.51027588 0.00517731 4.39433105 0.00422058 5.30517578 0.00323486 C7.178142 0.00255302 9.05111056 0.0044076 10.92407227 0.00857544 C13.80140458 0.01392364 16.67858078 0.0086306 19.5559082 0.00222778 C21.37101272 0.00288856 23.18611713 0.00416972 25.0012207 0.00613403 C25.86787354 0.0041098 26.73452637 0.00208557 27.62744141 0 C33.69877061 0.02399644 33.69877061 0.02399644 34.8137207 1.13894653 C34.92809937 2.77859939 34.97332429 4.42313557 34.99072266 6.06668091 C35.00355789 7.11867676 35.01639313 8.17067261 35.02961731 9.25454712 C35.04069771 10.97623108 35.04069771 10.97623108 35.05200195 12.73269653 C35.0600737 13.90852295 35.06814545 15.08434937 35.07646179 16.29580688 C35.09032822 18.79428625 35.10103885 21.29278476 35.10888672 23.79129028 C35.12602294 27.59504863 35.16987854 31.39792077 35.21411133 35.20144653 C35.22424453 37.62852347 35.23275866 40.05560781 35.23950195 42.48269653 C35.25701004 43.61429199 35.27451813 44.74588745 35.29255676 45.91177368 C35.27351193 52.92420693 34.20609004 57.99818073 30.8137207 64.13894653 C30.39606445 65.0064856 29.9784082 65.87402466 29.5480957 66.76785278 C28.63663737 68.55821737 27.72517904 70.34858195 26.8137207 72.13894653 C26.1537207 72.13894653 25.4937207 72.13894653 24.8137207 72.13894653 C24.5455957 72.84019653 24.2774707 73.54144653 24.0012207 74.26394653 C22.7455758 77.30392893 21.31136947 80.21172394 19.8137207 83.13894653 C19.1537207 83.13894653 18.4937207 83.13894653 17.8137207 83.13894653 C17.4837207 84.45894653 17.1537207 85.77894653 16.8137207 87.13894653 C16.1537207 87.13894653 15.4937207 87.13894653 14.8137207 87.13894653 C14.5249707 87.71644653 14.2362207 88.29394653 13.9387207 88.88894653 C12.89705404 90.97227987 11.85538737 93.0556132 10.8137207 95.13894653 C10.1537207 95.13894653 9.4937207 95.13894653 8.8137207 95.13894653 C8.4115332 96.34550903 8.4115332 96.34550903 8.0012207 97.57644653 C7.6093457 98.42207153 7.2174707 99.26769653 6.8137207 100.13894653 C5.3287207 100.63394653 5.3287207 100.63394653 3.8137207 101.13894653 C2.60489974 103.1391112 2.60489974 103.1391112 1.8137207 105.13894653 C1.1537207 105.13894653 0.4937207 105.13894653 -0.1862793 105.13894653 C-0.1862793 105.79894653 -0.1862793 106.45894653 -0.1862793 107.13894653 C-0.8462793 107.13894653 -1.5062793 107.13894653 -2.1862793 107.13894653 C-2.1862793 107.79894653 -2.1862793 108.45894653 -2.1862793 109.13894653 C-2.8462793 109.13894653 -3.5062793 109.13894653 -4.1862793 109.13894653 C-4.1862793 109.79894653 -4.1862793 110.45894653 -4.1862793 111.13894653 C-4.8462793 111.13894653 -5.5062793 111.13894653 -6.1862793 111.13894653 C-6.1862793 111.79894653 -6.1862793 112.45894653 -6.1862793 113.13894653 C-6.8462793 113.13894653 -7.5062793 113.13894653 -8.1862793 113.13894653 C-8.4956543 113.97425903 -8.4956543 113.97425903 -8.8112793 114.82644653 C-10.76310961 118.10907025 -13.12858924 119.84567899 -16.1862793 122.13894653 C-16.8462793 122.13894653 -17.5062793 122.13894653 -18.1862793 122.13894653 C-18.5162793 122.79894653 -18.8462793 123.45894653 -19.1862793 124.13894653 C-22.76320237 127.13894653 -22.76320237 127.13894653 -25.1862793 127.13894653 C-25.1862793 127.79894653 -25.1862793 128.45894653 -25.1862793 129.13894653 C-27.04956055 130.64675903 -27.04956055 130.64675903 -29.4987793 132.26394653 C-30.29928711 132.80277466 -31.09979492 133.34160278 -31.92456055 133.89675903 C-34.1862793 135.13894653 -34.1862793 135.13894653 -37.1862793 135.13894653 C-37.5162793 135.79894653 -37.8462793 136.45894653 -38.1862793 137.13894653 C-39.1762793 137.13894653 -40.1662793 137.13894653 -41.1862793 137.13894653 C-41.1862793 137.79894653 -41.1862793 138.45894653 -41.1862793 139.13894653 C-43.289536 140.12006628 -45.39391619 141.09877787 -47.4987793 142.07644653 C-48.67053711 142.62171997 -49.84229492 143.16699341 -51.04956055 143.72879028 C-55.03929001 145.52242956 -57.89352757 146.26380746 -62.22501659 146.26199436 C-63.27252502 146.26398541 -64.32003344 146.26597646 -65.39928454 146.26802784 C-66.55393956 146.265115 -67.70859457 146.26220216 -68.89823914 146.25920105 C-70.12178457 146.26005547 -71.34533 146.2609099 -72.60595256 146.26179022 C-76.00826642 146.26315554 -79.41052312 146.26001886 -82.81283009 146.25501215 C-86.47947829 146.25070263 -90.14612464 146.25215444 -93.81277466 146.25291443 C-100.16753751 146.25343934 -106.52229012 146.25029592 -112.8770504 146.24467659 C-122.06502087 146.23655722 -131.25298636 146.23394592 -140.44096003 146.2326886 C-155.34703606 146.23049877 -170.25310662 146.22384055 -185.15917969 146.21438599 C-199.64095024 146.20521009 -214.12271931 146.19813012 -228.60449219 146.19387817 C-229.49681569 146.19361545 -230.3891392 146.19335273 -231.30850282 146.19308204 C-235.78492821 146.19177703 -240.26135361 146.19051331 -244.73777902 146.18927014 C-281.88728297 146.17889967 -319.03678071 146.16128323 -356.1862793 146.13894653 C-356.35204092 144.38531501 -356.51599234 142.63151232 -356.67918396 140.87763977 C-356.77067939 139.9010097 -356.86217482 138.92437963 -356.95644283 137.91815472 C-357.23214579 134.58432378 -357.29963825 131.28440338 -357.28393555 127.93972778 C-357.28071289 126.71189575 -357.27749023 125.48406372 -357.27416992 124.21902466 C-357.26579102 122.97572388 -357.25741211 121.7324231 -357.2487793 120.45144653 C-357.24426758 119.16560669 -357.23975586 117.87976685 -357.23510742 116.55496216 C-357.22343931 113.41624001 -357.20706945 110.27761925 -357.1862793 107.13894653 C-354.22058421 105.44043383 -352.10518323 104.88992811 -348.69832611 104.89564419 C-347.79904624 104.89227879 -346.89976638 104.88891339 -345.97323561 104.88544601 C-344.98920775 104.89195381 -344.00517989 104.89846162 -342.99133301 104.90516663 C-341.94282559 104.90416334 -340.89431817 104.90316006 -339.8140378 104.90212637 C-336.28895489 104.90117127 -332.7640698 104.91453442 -329.23901367 104.92776489 C-326.71605489 104.92996546 -324.19309519 104.93127145 -321.6701355 104.93174744 C-316.22992762 104.9346849 -310.78978286 104.94369304 -305.34959412 104.95805168 C-297.47093497 104.97874591 -289.59229771 104.98741642 -281.713615 104.99297304 C-268.91379838 105.00223276 -256.11400729 105.01969008 -243.31420898 105.04299927 C-242.16495566 105.04508924 -242.16495566 105.04508924 -240.99248511 105.04722143 C-239.84186296 105.04931473 -239.84186296 105.04931473 -238.66799593 105.05145031 C-227.81243933 105.07118432 -216.95688189 105.08902811 -206.10131836 105.10452271 C-205.33850923 105.10561356 -204.57570011 105.10670441 -203.78977555 105.10782831 C-191.04757441 105.12588401 -178.30537065 105.13983433 -165.56316233 105.15169436 C-157.71050766 105.15926548 -149.85787885 105.17098393 -142.00523919 105.18815602 C-135.97748528 105.20114862 -129.94973545 105.2091767 -123.92197037 105.21546745 C-121.4565665 105.21892665 -118.99116433 105.22412825 -116.52576828 105.2312355 C-113.1495318 105.24075075 -109.77334291 105.24397126 -106.39709473 105.2457428 C-105.43091264 105.25001988 -104.46473056 105.25429696 -103.46927023 105.25870365 C-93.02019387 105.25009981 -83.12002502 104.48176387 -73.0612793 101.57644653 C-71.41338081 101.11488237 -69.76496742 100.6551513 -68.1159668 100.19754028 C-67.40682129 99.99443237 -66.69767578 99.79132446 -65.96704102 99.58206177 C-64.1862793 99.13894653 -64.1862793 99.13894653 -62.1862793 99.13894653 C-61.8562793 98.47894653 -61.5262793 97.81894653 -61.1862793 97.13894653 C-59.34006832 96.14595293 -57.45832978 95.21848392 -55.5612793 94.32644653 C-51.84070069 92.52373761 -48.38065741 90.73238238 -45.0612793 88.26394653 C-42.1862793 86.13894653 -42.1862793 86.13894653 -40.1862793 86.13894653 C-40.1862793 85.47894653 -40.1862793 84.81894653 -40.1862793 84.13894653 C-39.5262793 84.13894653 -38.8662793 84.13894653 -38.1862793 84.13894653 C-38.1862793 83.47894653 -38.1862793 82.81894653 -38.1862793 82.13894653 C-34.72474084 79.13894653 -34.72474084 79.13894653 -32.1862793 79.13894653 C-32.1862793 78.47894653 -32.1862793 77.81894653 -32.1862793 77.13894653 C-31.5262793 77.13894653 -30.8662793 77.13894653 -30.1862793 77.13894653 C-30.1037793 76.56144653 -30.0212793 75.98394653 -29.9362793 75.38894653 C-28.96494904 72.47495575 -27.38893679 71.28041909 -25.1862793 69.13894653 C-10.89594877 51.37258966 -6.75300121 29.47193672 -7.17163086 7.2204895 C-7.20777234 5.19362483 -7.20115343 3.16607883 -7.1862793 1.13894653 C-5.29004728 -0.75728549 -2.5225757 0.00997028 0 0 Z " fill="currentColor" transform="translate(357.186279296875,242.86105346679688)"/>
<path d="M0 0 C1.04145943 -0.00384115 2.08291886 -0.00768229 3.15593767 -0.01163983 C4.89328653 -0.01034011 4.89328653 -0.01034011 6.66573334 -0.00901413 C7.88530338 -0.01198525 9.10487342 -0.01495637 10.36140013 -0.01801753 C13.76225287 -0.02522147 17.16305513 -0.02787868 20.56391191 -0.028615 C24.22600151 -0.03046074 27.88808004 -0.03800587 31.55016327 -0.04475021 C39.56698009 -0.05835654 47.58379192 -0.06436247 55.60061836 -0.06876087 C60.60571779 -0.07152069 65.61081527 -0.07575769 70.61591339 -0.08026505 C84.46998473 -0.09246313 98.32405451 -0.1027598 112.1781311 -0.10614014 C113.0656153 -0.1063597 113.95309949 -0.10657927 114.86747715 -0.10680549 C116.20193289 -0.10713291 116.20193289 -0.10713291 117.56334734 -0.10746694 C119.36615276 -0.1079104 121.16895819 -0.10835697 122.97176361 -0.10880661 C123.86602175 -0.10902804 124.76027988 -0.10924947 125.68163675 -0.10947761 C140.16053565 -0.11342262 154.63938411 -0.13086517 169.11826354 -0.15416613 C183.97913375 -0.17788885 198.83997868 -0.19034249 213.70086813 -0.19150805 C222.04630621 -0.19242456 230.39167869 -0.19817017 238.73709869 -0.21632767 C245.84669622 -0.23174141 252.9562079 -0.2368418 260.06581897 -0.22858956 C263.69223275 -0.22468689 267.31847373 -0.2255936 270.94486618 -0.23964691 C274.88070474 -0.25475946 278.81630108 -0.24650742 282.75215912 -0.23606491 C284.46273931 -0.24814952 284.46273931 -0.24814952 286.20787668 -0.26047826 C292.75492313 -0.2198653 298.16286473 0.58674452 304.2168808 3.13142776 C304.2168808 3.79142776 304.2168808 4.45142776 304.2168808 5.13142776 C304.78277924 5.2538887 305.34867767 5.37634964 305.93172455 5.50252151 C314.75271362 7.93017834 322.05048284 13.69007657 329.2168808 19.13142776 C330.44084564 20.01121292 330.44084564 20.01121292 331.68953705 20.90877151 C332.7858847 21.69961136 332.7858847 21.69961136 333.9043808 22.50642776 C334.54762299 22.96791214 335.19086517 23.42939651 335.85359955 23.90486526 C336.52842377 24.5120137 336.52842377 24.5120137 337.2168808 25.13142776 C337.2168808 25.79142776 337.2168808 26.45142776 337.2168808 27.13142776 C337.8768808 27.13142776 338.5368808 27.13142776 339.2168808 27.13142776 C339.2168808 27.79142776 339.2168808 28.45142776 339.2168808 29.13142776 C340.2068808 29.13142776 341.1968808 29.13142776 342.2168808 29.13142776 C342.2168808 29.79142776 342.2168808 30.45142776 342.2168808 31.13142776 C342.8768808 31.13142776 343.5368808 31.13142776 344.2168808 31.13142776 C344.2168808 31.79142776 344.2168808 32.45142776 344.2168808 33.13142776 C345.5368808 33.79142776 346.8568808 34.45142776 348.2168808 35.13142776 C348.2168808 35.79142776 348.2168808 36.45142776 348.2168808 37.13142776 C348.8768808 37.13142776 349.5368808 37.13142776 350.2168808 37.13142776 C351.7246933 38.59236526 351.7246933 38.59236526 353.3418808 40.50642776 C353.88070892 41.13291214 354.41953705 41.75939651 354.9746933 42.40486526 C356.2168808 44.13142776 356.2168808 44.13142776 356.2168808 46.13142776 C357.2068808 46.46142776 358.1968808 46.79142776 359.2168808 47.13142776 C360.87884979 49.08043803 362.40134582 51.0049515 363.9043808 53.06892776 C364.52796478 53.89553909 364.52796478 53.89553909 365.16414642 54.73884964 C368.2168808 58.86430184 368.2168808 58.86430184 368.2168808 61.13142776 C368.8768808 61.13142776 369.5368808 61.13142776 370.2168808 61.13142776 C372.2168808 64.13142776 372.2168808 64.13142776 372.2168808 67.13142776 C372.8768808 67.13142776 373.5368808 67.13142776 374.2168808 67.13142776 C375.85044499 70.00164054 377.4721481 72.87839033 379.0918808 75.75642776 C379.78217377 76.96879105 379.78217377 76.96879105 380.48641205 78.20564651 C380.93113861 78.99841995 381.37586517 79.79119339 381.8340683 80.60799026 C382.24253998 81.33067093 382.65101166 82.05335159 383.07186127 82.79793167 C386.45011403 89.68265234 386.49555401 95.72745105 386.44734955 103.27595901 C386.44689133 104.44148804 386.44643311 105.60701706 386.445961 106.80786514 C386.4429471 109.2629791 386.4350867 111.71809129 386.42269135 114.17317581 C386.40436229 117.94773939 386.40218227 121.72205857 386.40242767 125.49666214 C386.397515 127.8814299 386.39168778 130.266196 386.38484955 132.65095901 C386.38373672 133.78628571 386.3826239 134.9216124 386.38147736 136.09134293 C386.3750975 137.1330011 386.36871765 138.17465927 386.36214447 139.24788284 C386.35833267 140.16910431 386.35452087 141.09032578 386.35059357 142.03946304 C386.2168808 144.13142776 386.2168808 144.13142776 385.2168808 145.13142776 C382.34424024 145.2324965 379.49614452 145.27112448 376.6231308 145.26424026 C375.3303421 145.26567535 375.3303421 145.26567535 374.01143646 145.26713943 C372.18554868 145.26782126 370.35965848 145.26596681 368.53377533 145.26179886 C365.72887002 145.25645063 362.92412484 145.26174376 360.11922455 145.26814651 C358.34969294 145.26748573 356.58016144 145.26620457 354.8106308 145.26424026 C353.96585175 145.2662645 353.12107269 145.26828873 352.25069427 145.2703743 C346.33183111 145.24637808 346.33183111 145.24637808 345.2168808 144.13142776 C345.12091197 142.05423583 345.03198153 139.97648863 344.97786713 137.89778519 C344.47855128 119.95061541 341.32869534 102.03234394 332.0293808 86.39705276 C330.2168808 83.13142776 330.2168808 83.13142776 330.2168808 80.13142776 C329.5568808 80.13142776 328.8968808 80.13142776 328.2168808 80.13142776 C326.60645959 78.14085136 325.09269923 76.13944922 323.5918808 74.06892776 C309.53564747 55.36417633 288.0566689 44.72329897 265.2168808 41.13142776 C257.8388991 40.26375469 250.53592665 39.99191601 243.11286163 40.0246315 C242.05131758 40.02518821 240.98977353 40.02574491 239.89606148 40.02631849 C236.36943234 40.02933386 232.84286133 40.03950334 229.31624603 40.04964066 C226.77602956 40.05319982 224.23581238 40.05628498 221.69559479 40.05893326 C216.24186512 40.06546587 210.78815293 40.0749281 205.3344326 40.08682823 C197.44726385 40.10385782 189.56009881 40.11337266 181.6729157 40.12070697 C168.87107862 40.13262796 156.06924748 40.14757056 143.26741791 40.16585159 C142.50258443 40.16694172 141.73775096 40.16803184 140.94974072 40.16915499 C130.07280584 40.18479739 119.19587797 40.20340069 108.31894989 40.22315287 C107.55138769 40.22454618 106.7838255 40.2259395 105.99300385 40.22737503 C104.8430677 40.22946533 104.8430677 40.22946533 103.66990053 40.23159785 C90.90266684 40.25460505 78.13543773 40.26993637 65.36818653 40.27893442 C57.49582894 40.28479361 49.62353433 40.29718395 41.75120158 40.31790721 C35.73194273 40.33319184 29.71272145 40.33821436 23.69344139 40.33934975 C21.21899111 40.34150612 18.74454119 40.34712798 16.27010727 40.35638046 C12.90601937 40.36847832 9.54214998 40.36842976 6.17804718 40.36520767 C5.18751152 40.37171547 4.19697586 40.37822328 3.17642397 40.38492829 C2.2805095 40.38156289 1.38459503 40.37819749 0.46153164 40.37473011 C-0.31548888 40.37603162 -1.0925094 40.37733314 -1.893076 40.37867409 C-3.7831192 40.13142776 -3.7831192 40.13142776 -5.7831192 38.13142776 C-5.97065231 35.34632552 -6.03873152 32.6624313 -6.01358795 29.87752151 C-6.01312973 29.06146942 -6.01267151 28.24541733 -6.0121994 27.40463638 C-6.00917664 25.67886781 -6.00128962 23.95310198 -5.98892975 22.22737503 C-5.97066898 19.57615444 -5.96842006 16.92528281 -5.96866608 14.27400589 C-5.96375114 12.60017473 -5.95792293 10.92634594 -5.95108795 9.25252151 C-5.94997513 8.45462708 -5.9488623 7.65673264 -5.94771576 6.83465958 C-5.88839916 0.00810078 -5.88839916 0.00810078 0 0 Z " fill="currentColor" transform="translate(5.783119201660156,-0.13142776489257813)"/>
<path d="M0 0 C1.65148544 0.0001133 1.65148544 0.0001133 3.33633423 0.00022888 C4.52906952 0.00539017 5.72180481 0.01055145 6.95068359 0.01586914 C8.16863617 0.01728409 9.38658875 0.01869904 10.64144897 0.02015686 C14.54403099 0.025769 18.44655632 0.0383236 22.34912109 0.05102539 C24.98974527 0.05603882 27.63037034 0.060602 30.27099609 0.06469727 C36.75539054 0.07574238 43.23975177 0.09249237 49.72412109 0.11352539 C49.85551054 28.56736426 49.9859414 57.02120739 50.11527252 85.47505569 C50.17536293 98.69064793 50.23575134 111.90623867 50.296875 125.12182617 C50.3502329 136.65854486 50.40299734 148.19526609 50.45508814 159.73199058 C50.48261538 165.82417992 50.51041321 171.91636773 50.53892517 178.00855255 C50.66525352 205.04372114 50.76204377 232.07803526 50.72412109 259.11352539 C47.1967726 259.85620811 43.99195903 260.23583157 40.38305664 260.22705078 C39.34235519 260.22697525 38.30165375 260.22689972 37.22941589 260.2268219 C36.1177858 260.22166061 35.0061557 260.21649933 33.86083984 260.21118164 C32.71372025 260.20976669 31.56660065 260.20835175 30.38471985 260.20689392 C26.72699355 260.201304 23.06932884 260.18875328 19.41162109 260.17602539 C16.9292001 260.17100909 14.44677815 260.16644641 11.96435547 260.16235352 C5.88425639 260.15133786 -0.19580686 260.13460969 -6.27587891 260.11352539 C-7.51456171 256.39747696 -7.45742353 252.92322044 -7.47900391 249.05102539 C-7.48755402 247.86947876 -7.48755402 247.86947876 -7.49627686 246.6640625 C-7.50571527 244.99976949 -7.51225624 243.33545788 -7.51611328 241.67114258 C-7.52584287 239.12296198 -7.55688576 236.57558006 -7.58837891 234.02758789 C-7.59490691 232.41040518 -7.60015818 230.7932167 -7.60400391 229.17602539 C-7.61635071 228.41346436 -7.62869751 227.65090332 -7.64141846 226.86523438 C-7.61935502 221.63930955 -7.61935502 221.63930955 -5.97875977 219.12792969 C-3.06789989 217.39393359 0.13241768 217.80661462 3.41162109 217.92602539 C4.11351562 217.93956055 4.81541016 217.9530957 5.53857422 217.96704102 C7.26741938 218.00232357 8.99586875 218.05612956 10.72412109 218.11352539 C11.89469236 214.60181158 11.84704486 211.85464025 11.84437561 208.14704895 C11.84523004 207.43394756 11.84608446 206.72084618 11.84696478 205.98613566 C11.8486151 203.59082941 11.84310551 201.1955928 11.83764648 198.80029297 C11.83736449 197.08558656 11.83752259 195.37088004 11.83808899 193.65617371 C11.83837649 188.99533244 11.83248743 184.3345168 11.82551503 179.6736815 C11.81927359 174.80497253 11.81867707 169.93626301 11.81748962 165.06755066 C11.81437865 155.845327 11.80616839 146.62311517 11.79614013 137.40089673 C11.78497176 126.90284229 11.77946672 116.40478729 11.7744447 105.90672839 C11.7639856 84.30898745 11.74639066 62.71125716 11.72412109 41.11352539 C9.91814453 41.13092773 9.91814453 41.13092773 8.07568359 41.14868164 C6.50016431 41.15805973 4.92464335 41.16715991 3.34912109 41.17602539 C2.55505859 41.1844043 1.76099609 41.1927832 0.94287109 41.20141602 C-5.04931641 41.22680664 -5.04931641 41.22680664 -7.27587891 40.11352539 C-7.27587891 27.24352539 -7.27587891 14.37352539 -7.27587891 1.11352539 C-4.70454432 -0.1721419 -2.8787079 -0.00657239 0 0 Z " fill="currentColor" transform="translate(7.27587890625,63.886474609375)"/>
<path d="M0 0 C1.04488586 -0.00960754 2.08977173 -0.01921509 3.1663208 -0.02911377 C4.30478455 -0.03336365 5.44324829 -0.03761353 6.61621094 -0.04199219 C7.779328 -0.04769226 8.94244507 -0.05339233 10.14080811 -0.05926514 C12.60899948 -0.06873385 15.07720361 -0.0752565 17.54541016 -0.07910156 C21.32053798 -0.08879007 25.0951177 -0.11978962 28.87011719 -0.15136719 C31.26464519 -0.15789856 33.65917711 -0.1631485 36.05371094 -0.16699219 C37.18407776 -0.17933899 38.31444458 -0.19168579 39.47906494 -0.20440674 C40.53655945 -0.20140564 41.59405396 -0.19840454 42.68359375 -0.1953125 C44.07472382 -0.20078094 44.07472382 -0.20078094 45.49395752 -0.20635986 C48.6710087 0.24155325 50.54221942 1.24549997 53.10058594 3.16113281 C54.0930843 6.13862791 54.2499495 8.17587215 54.29345703 11.28759766 C54.30951996 12.33233246 54.32558289 13.37706726 54.34213257 14.45346069 C54.38660936 19.22124545 54.42762898 23.98889237 54.45068359 28.75683594 C54.46726218 31.27288042 54.49457675 33.78887745 54.53271484 36.3046875 C54.5874081 39.93156372 54.60934516 43.55733757 54.62402344 47.18457031 C54.64669281 48.30866302 54.66936218 49.43275574 54.69271851 50.59091187 C54.68017779 55.21568996 54.58590823 58.28972557 52.31201172 62.37255859 C47.36816723 65.12598757 42.76328328 64.83656365 37.19433594 64.75488281 C35.45815002 64.75494324 35.45815002 64.75494324 33.68688965 64.75500488 C31.24253909 64.74964934 28.798189 64.73206549 26.35400391 64.703125 C22.6140476 64.66128342 18.87589301 64.66205647 15.13574219 64.66894531 C12.7594276 64.65845227 10.38312229 64.64551355 8.00683594 64.62988281 C6.88901733 64.6296814 5.77119873 64.62947998 4.61950684 64.62927246 C3.5749231 64.6133606 2.53033936 64.59744873 1.45410156 64.58105469 C0.53874634 64.5726355 -0.37660889 64.56421631 -1.31970215 64.55554199 C-4.43999633 64.07848381 -6.34824041 62.99186654 -8.89941406 61.16113281 C-10.16883706 58.62228683 -10.02642571 56.8506299 -10.02880859 54.00878906 C-10.03196075 52.9342749 -10.03511292 51.85976074 -10.0383606 50.75268555 C-10.03633636 49.58809814 -10.03431213 48.42351074 -10.03222656 47.22363281 C-10.03318329 46.03261963 -10.03414001 44.84160645 -10.03512573 43.61450195 C-10.03580721 41.09261014 -10.03395516 38.57071658 -10.02978516 36.04882812 C-10.02443649 32.17736897 -10.02973127 28.30602584 -10.03613281 24.43457031 C-10.03547203 21.98925756 -10.03419085 19.54394487 -10.03222656 17.09863281 C-10.03425079 15.93404541 -10.03627502 14.76945801 -10.0383606 13.56958008 C-10.03520844 12.49506592 -10.03205627 11.42055176 -10.02880859 10.31347656 C-10.028013 9.364646 -10.02721741 8.41581543 -10.02639771 7.43823242 C-9.89941406 5.16113281 -9.89941406 5.16113281 -8.89941406 3.16113281 C-8.23941406 3.16113281 -7.57941406 3.16113281 -6.89941406 3.16113281 C-6.56941406 2.50113281 -6.23941406 1.84113281 -5.89941406 1.16113281 C-4.24246296 -0.49581829 -2.27982003 0.01684266 0 0 Z " fill="currentColor" transform="translate(173.8994140625,161.8388671875)"/>
<path d="M0 0 C0.33 0 0.66 0 1 0 C1.15399456 22.43546454 1.30202514 44.87096137 1.4429636 67.30651188 C1.50854323 77.72381196 1.57607146 88.1410926 1.64819336 98.55834961 C1.71105266 107.63843699 1.77024939 116.71853961 1.82505554 125.79867929 C1.85420025 130.60614081 1.88517388 135.4135748 1.92053413 140.22099495 C1.95377083 144.74757569 1.98210336 149.27416086 2.00670624 153.80079651 C2.01658522 155.4604147 2.02824216 157.12002343 2.04183006 158.7796154 C2.06014912 161.04990128 2.07200032 163.32013489 2.08229065 165.59046936 C2.09058679 166.8597783 2.09888292 168.12908724 2.10743046 169.43686008 C2 173 2 173 1 180 C-4.28 180 -9.56 180 -15 180 C-15 179.67 -15 179.34 -15 179 C-10.71 178.67 -6.42 178.34 -2 178 C-0.82877049 174.48631148 -0.86037084 171.70543719 -0.84178162 167.99555969 C-0.83684364 167.27837475 -0.83190566 166.56118982 -0.82681805 165.822272 C-0.81142971 163.41317393 -0.80307882 161.00410253 -0.79467773 158.5949707 C-0.78510026 156.87040979 -0.77509026 155.14585124 -0.76467896 153.42129517 C-0.73760967 148.73362083 -0.71661106 144.0459364 -0.69667697 139.35822701 C-0.6748299 134.46147075 -0.64743496 129.56474566 -0.62062073 124.66801453 C-0.57067653 115.39268964 -0.5257441 106.11734747 -0.48259836 96.84198874 C-0.43324075 86.28345378 -0.37831715 75.7249501 -0.32291877 65.16644537 C-0.20907221 43.44432604 -0.10223899 21.72217686 0 0 Z " fill="currentColor" transform="translate(20,104)"/>
<path d="M0 0 C0.33 0 0.66 0 1 0 C1.19743258 2.01988712 1.3824556 4.04098878 1.5625 6.0625 C1.66691406 7.18785156 1.77132813 8.31320312 1.87890625 9.47265625 C2 13 2 13 1 20 C-4.28 20 -9.56 20 -15 20 C-15 19.67 -15 19.34 -15 19 C-8.565 18.505 -8.565 18.505 -2 18 C-0.81304447 14.43913342 -0.64904582 11.02668976 -0.4375 7.3125 C-0.39431641 6.61060547 -0.35113281 5.90871094 -0.30664062 5.18554688 C-0.2008264 3.45724794 -0.09993419 1.7286489 0 0 Z " fill="currentColor" transform="translate(20,264)"/>
<path d="M0 0 C4.875 1.75 4.875 1.75 6 4 C4.35 4.66 2.7 5.32 1 6 C0.01 5.01 -0.98 4.02 -2 3 C-1.34 2.01 -0.68 1.02 0 0 Z " fill="currentColor" transform="translate(292,74)"/>
<path d="M0 0 C-2.97 2.475 -2.97 2.475 -6 5 C-6 4.34 -6 3.68 -6 3 C-7.65 3.33 -9.3 3.66 -11 4 C-3.77464789 -1.88732394 -3.77464789 -1.88732394 0 0 Z " fill="currentColor" transform="translate(273,279)"/>
<path d="M0 0 C1.98 0.99 1.98 0.99 4 2 C3.01 2.495 3.01 2.495 2 3 C2 4.32 2 5.64 2 7 C1.34 7 0.68 7 0 7 C0 4.69 0 2.38 0 0 Z " fill="currentColor" transform="translate(0,65)"/>
</svg>
